<svg width="22" height="22" viewBox="0 0 22 22" fill="none" xmlns="http://www.w3.org/2000/svg">
<rect width="22" height="22" fill="#F5F5F5"/>
<g id="DTC" clip-path="url(#clip0_867_111)">
<rect width="360" height="1315" transform="translate(-12 -674)" fill="white"/>
<rect id="Rectangle 34853" x="-12" y="-585" width="360" height="664" fill="white"/>
<g id="Group 1000003830">
<g id="Group 1000003828">
<g id="Group 1000003823">
<g id="bus-stop 1" clip-path="url(#clip1_867_111)">
<g id="Group">
<g id="Group_2">
<g id="Group_3">
<path id="Vector" d="M20.3315 0.000976562H8.63268C7.66782 0.0502146 6.92353 0.868958 6.96619 1.83417V16.8663C6.96619 16.8718 6.96907 16.8763 6.96933 16.8817C6.97053 16.9231 6.97878 16.9641 6.99378 17.0027L6.99606 17.0104L6.99666 17.0125L7.86438 19.0064C7.9705 19.2611 8.2176 19.4286 8.49348 19.4327H8.79943V20.8992C8.80068 21.0244 8.82353 21.1485 8.86702 21.2658H4.39971V14.6664C4.39907 14.0592 3.90699 13.5671 3.29981 13.5665V7.30823C4.83624 7.11467 5.95746 5.76002 5.86049 4.21448C5.76351 2.66894 4.48174 1.46506 2.93314 1.46506C1.38455 1.46506 0.102813 2.66894 0.00584116 4.21448C-0.0911312 5.76002 1.03009 7.11467 2.56652 7.30823V13.5665C1.95934 13.5671 1.46726 14.0592 1.46661 14.6664V21.2658H0.366705C0.164211 21.2658 8.38309e-05 21.43 8.38309e-05 21.6325C8.38309e-05 21.835 0.164211 21.9991 0.366705 21.9991H21.6316C21.8341 21.9991 21.9982 21.8349 21.9982 21.6325C21.9982 21.43 21.8341 21.2658 21.6316 21.2658H20.0975C20.1409 21.1484 20.1638 21.0244 20.165 20.8992V19.4327H20.4708C20.7465 19.4285 20.9935 19.2613 21.0999 19.0068L21.9678 17.0125L21.9684 17.0106C21.9695 17.008 21.9697 17.0051 21.9708 17.0024C21.9858 16.9637 21.9941 16.9226 21.9952 16.8811C21.9954 16.8759 21.9982 16.8715 21.9982 16.8663V1.83417C22.0409 0.868915 21.2965 0.0501716 20.3315 0.000976562ZM0.73337 4.40061C0.73337 3.18568 1.71826 2.20079 2.93319 2.20079C4.14811 2.20079 5.133 3.18568 5.133 4.40061C5.133 5.61553 4.14811 6.60042 2.93319 6.60042C1.71878 6.59909 0.734702 5.61497 0.73337 4.40061ZM3.66643 21.2659H2.1999V14.6664C2.20016 14.4641 2.36416 14.3001 2.56652 14.2998H3.29981C3.50217 14.3001 3.66617 14.4641 3.66643 14.6664V21.2659ZM10.9992 20.8992C10.9989 21.1016 10.8349 21.2656 10.6325 21.2658H9.89925C9.69689 21.2656 9.53289 21.1016 9.53263 20.8992V19.4327H10.9992V20.8992ZM11.6649 21.2659C11.7083 21.1485 11.7312 21.0244 11.7324 20.8993V19.4327H17.2319V20.8993C17.2332 21.0245 17.256 21.1485 17.2995 21.2659H11.6649ZM19.4318 20.8992C19.4316 21.1016 19.2676 21.2657 19.0652 21.2658H18.3319C18.1295 21.2656 17.9654 21.1016 17.9653 20.8992V19.4327H19.4318V20.8992ZM20.434 18.6994H8.53047L7.89227 17.2329H21.0724L20.434 18.6994ZM12.8324 16.4996V15.7663C12.8326 15.5639 12.9966 15.3999 13.199 15.3997H15.7654C15.9678 15.3999 16.1318 15.5639 16.132 15.7663V16.4996H12.8324ZM21.265 1.83417V16.4996H16.8653V15.7663C16.8647 15.1591 16.3726 14.667 15.7654 14.6664H13.199C12.5918 14.667 12.0997 15.1591 12.0991 15.7663V16.4996H7.69944V1.83417C7.65798 1.27421 8.07345 0.784532 8.63268 0.734263H20.3315C20.8908 0.784532 21.3064 1.27416 21.265 1.83417Z" fill="#454545"/>
<path id="Vector_2" d="M19.4317 1.46729H9.53252C8.92534 1.46793 8.43326 1.96001 8.43262 2.56719V2.93381C8.43326 3.541 8.92534 4.03308 9.53252 4.03372H19.4317C20.0389 4.03308 20.531 3.541 20.5316 2.93381V2.56719C20.5309 1.96001 20.0389 1.46793 19.4317 1.46729ZM19.7983 2.93381C19.7981 3.13622 19.6341 3.30026 19.4317 3.30044H9.53252C9.33016 3.30018 9.16616 3.13618 9.1659 2.93381V2.56719C9.16616 2.36483 9.33016 2.20083 9.53252 2.20057H19.4317C19.6341 2.20079 19.7981 2.36478 19.7983 2.56719V2.93381Z" fill="#454545"/>
<path id="Vector_3" d="M9.89915 12.833C9.08921 12.833 8.43262 13.4896 8.43262 14.2995C8.43356 15.1091 9.0896 15.7652 9.89915 15.7661C10.7091 15.7661 11.3657 15.1095 11.3657 14.2995C11.3657 13.4896 10.7091 12.833 9.89915 12.833ZM9.89915 15.0328C9.49416 15.0328 9.16586 14.7045 9.16586 14.2995C9.16625 13.8947 9.49433 13.5667 9.89915 13.5663C10.3041 13.5663 10.6324 13.8945 10.6324 14.2995C10.6324 14.7045 10.3041 15.0328 9.89915 15.0328Z" fill="#454545"/>
<path id="Vector_4" d="M19.0652 12.833C18.2552 12.833 17.5986 13.4896 17.5986 14.2995C17.5986 15.1095 18.2552 15.7661 19.0652 15.7661C19.8751 15.7661 20.5317 15.1095 20.5317 14.2995C20.5309 13.4899 19.8748 12.8339 19.0652 12.833ZM19.0652 15.0328C18.6602 15.0328 18.3319 14.7045 18.3319 14.2995C18.3319 13.8945 18.6602 13.5663 19.0652 13.5663C19.4702 13.5663 19.7984 13.8945 19.7984 14.2995C19.798 14.7043 19.47 15.0324 19.0652 15.0328Z" fill="#454545"/>
<path id="Vector_5" d="M19.4317 4.76709H9.53252C8.92534 4.76773 8.43326 5.25981 8.43262 5.867V10.9999C8.43326 11.6071 8.92534 12.0992 9.53252 12.0998H19.4317C20.0389 12.0992 20.531 11.6071 20.5316 10.9999V5.867C20.5309 5.25981 20.0389 4.76773 19.4317 4.76709ZM19.7983 10.9999C19.7981 11.2023 19.6341 11.3663 19.4317 11.3665H9.53252C9.33016 11.3662 9.16616 11.2022 9.1659 10.9999V5.867C9.16616 5.66463 9.33016 5.50063 9.53252 5.50038H19.4317C19.6341 5.50059 19.7981 5.66459 19.7983 5.867V10.9999Z" fill="#454545"/>
</g>
</g>
</g>
</g>
</g>
</g>
</g>
</g>
<defs>
<clipPath id="clip0_867_111">
<rect width="360" height="1315" fill="white" transform="translate(-12 -674)"/>
</clipPath>
<clipPath id="clip1_867_111">
<rect width="22" height="22" fill="white"/>
</clipPath>
</defs>
</svg>
